<svg width="46" height="46" viewBox="0 0 46 46" fill="none" xmlns="http://www.w3.org/2000/svg">
<rect width="46" height="46" rx="23" fill="#0A0A23"/>
<path d="M15.556 15.1206C15.6358 15.2 15.7156 15.3145 15.7159 15.4296C15.7163 15.6286 15.4827 15.8985 15.0507 16.342C13.2496 18.0762 12.3436 20.1999 12.3498 22.7613C12.3565 25.5951 13.3094 27.8709 15.1614 29.6346C15.5509 29.9827 15.7109 30.2564 15.7115 30.4907C15.7115 30.6055 15.6324 30.725 15.5529 30.8401C15.4782 30.9199 15.319 31 15.2042 31C14.7757 31.0011 14.176 30.4944 13.3929 29.5086C11.8682 27.64 11.1789 25.5764 11.1402 22.764C11.1045 19.9503 11.9868 18.0423 13.7135 16.0724C14.3349 15.3685 14.8531 15.0028 15.2066 15.0021C15.3214 15.0017 15.4409 15.0411 15.556 15.1206Z" fill="white"/>
<path d="M25.0159 23.2682C24.3391 23.0954 27.1161 19.8144 22.1804 15.8862C22.1804 15.8862 22.828 17.9437 19.5627 22.5351C16.2956 27.1247 21.0154 29.859 21.0154 29.859C21.0154 29.859 18.8003 28.6786 21.3753 24.4761C21.8361 23.7137 22.4392 23.0234 23.1879 21.4695C23.1879 21.4695 23.8508 22.405 23.5048 24.4333C22.9873 27.4983 25.749 26.6211 25.7918 26.6639C26.7565 27.7998 24.9928 29.7962 24.8855 29.859C24.7785 29.9201 29.9224 26.7648 26.2679 22.0162C26.0176 22.2665 25.6923 23.4414 25.0159 23.2682Z" fill="white"/>
<path d="M30.4441 15.1185C30.3643 15.198 30.2845 15.3124 30.2842 15.4275C30.2838 15.6265 30.5175 15.8965 30.9494 16.34C32.7505 18.0738 33.6565 20.1978 33.6504 22.7592C33.6436 25.593 32.6907 27.8688 30.8387 29.6325C30.4492 29.9806 30.2893 30.2543 30.2886 30.4886C30.2886 30.6034 30.3677 30.7229 30.4472 30.838C30.5219 30.9178 30.6811 30.9976 30.7959 30.998C31.2245 30.999 31.8241 30.4923 32.6072 29.5066C34.1319 27.6379 34.8212 25.5743 34.8599 22.762C34.8956 19.9483 34.0134 18.0402 32.2866 16.0703C31.6652 15.3664 31.147 15.0007 30.7935 15C30.6788 14.9997 30.5592 15.0391 30.4441 15.1185Z" fill="white"/>
</svg>
