<svg width="46" height="46" viewBox="0 0 46 46" fill="none" xmlns="http://www.w3.org/2000/svg">
<rect width="46" height="46" rx="23" fill="white"/>
<path d="M22.6593 17.6382C22.4804 15.8202 21.6318 14.1338 20.2784 12.9068C18.925 11.6799 17.1636 11.0002 15.3369 11H8.31567V17.6382H22.6593Z" fill="#FF7C44"/>
<path d="M30.7249 35V34.0346C30.7246 32.2079 30.0449 30.4466 28.818 29.0933C27.591 27.7401 25.9046 26.8915 24.0867 26.7128V35H30.7249Z" fill="#F46042"/>
<path d="M24.0872 17.6382C24.266 15.8203 25.1146 14.134 26.4679 12.9071C27.8211 11.6801 29.5823 11.0004 31.409 11H37.6841V17.6382H24.0872Z" fill="#F46042"/>
<path d="M24.0872 25.6049C24.266 23.787 25.1146 22.1006 26.4679 20.8737C27.8211 19.6468 29.5823 18.9671 31.409 18.9667H37.6841V25.6049H24.0872Z" fill="#F46042"/>
<path d="M22.6594 18.9673C20.8416 19.1462 19.1552 19.9947 17.9283 21.348C16.7014 22.7013 16.0216 24.4625 16.0212 26.2891V35H22.6594V18.9673Z" fill="#FF7C44"/>
</svg>
