<svg width="46" height="46" viewBox="0 0 46 46" fill="none" xmlns="http://www.w3.org/2000/svg">
<rect width="46" height="46" rx="23" fill="white"/>
<path d="M13.7607 11H32.2391C32.2391 11 32.2391 18.0524 32.2391 22.59C32.2391 31.8838 22.9999 35 22.9999 35C22.9999 35 13.7607 31.8838 13.7607 22.59C13.7607 18.0524 13.7607 11 13.7607 11Z" fill="black"/>
<path d="M31.9658 11.2733V22.5899C31.9658 31.1731 23.9294 34.3439 23 34.7266C22.0706 34.3986 14.0342 31.1731 14.0342 22.6446V11.2733H31.9658Z" fill="white"/>
<path d="M31.1456 22.59C31.1456 30.025 24.6399 33.1412 22.9998 33.8519C21.3597 33.1959 14.854 30.025 14.854 22.6446V12.0934H31.1456V22.59Z" fill="black"/>
<path d="M22.9999 33.5239C21.1958 32.7585 15.1274 29.697 15.1274 22.5899V12.3667H30.8723V22.5899C30.8723 29.697 24.804 32.8132 22.9999 33.5239Z" fill="black"/>
<path d="M23.0546 19.9658C23.4373 19.9658 23.656 20.2392 23.656 20.5672C23.656 20.6219 23.656 20.7859 23.5466 20.8405H23.492L23.5466 20.7312C23.5466 20.6765 23.5466 20.6219 23.5466 20.5672C23.5466 20.4032 23.3826 20.1298 23.2186 20.1298H23.0546C22.9999 20.1298 22.9999 20.1298 22.9999 20.1845C22.9999 20.2938 23.1093 20.2938 23.1639 20.3485C23.2733 20.4578 23.3279 20.5672 23.3279 20.6765C23.3279 20.7312 23.2733 20.9499 23.1639 20.9499H22.6719C22.5626 20.9499 22.5626 20.7859 22.5626 20.7312C22.5626 20.7312 22.5626 20.6765 22.5626 20.6219C22.5079 20.2392 22.7266 19.9658 23.0546 19.9658Z" fill="white"/>
<path d="M23.1092 19.5284C23.1639 19.5284 23.3825 19.5831 23.4372 19.6378C23.4372 19.6925 23.4919 19.6925 23.4919 19.6925L23.6012 19.9111V20.0205C23.3825 19.8565 23.2185 19.8018 23.0545 19.8018C22.8905 19.8018 22.7265 19.8565 22.5625 20.0205C22.5625 20.0205 22.5625 20.0205 22.5625 19.9658V19.9111C22.6718 19.6925 22.8905 19.5284 23.1092 19.5284Z" fill="white"/>
<path d="M23.9292 19.4738C24.3119 19.5284 24.7492 19.6378 25.1319 19.8564L25.0773 19.9111C24.7492 19.9658 24.4759 19.9658 24.1479 20.0205C24.0932 19.8564 23.9292 19.5284 23.9292 19.4738Z" fill="white"/>
<path d="M22.1798 19.4738H22.2891C22.1798 19.6378 22.0704 19.8564 22.0704 20.0751H21.9064C21.6877 20.0751 21.0317 19.9658 20.9224 19.9111C21.3051 19.6378 21.7424 19.5284 22.1798 19.4738Z" fill="white"/>
<path d="M23.4371 19.4192C23.4918 19.4192 23.5464 19.4192 23.6011 19.4192C23.7651 19.4739 23.8744 19.8019 23.8744 19.9112C23.8744 19.9112 23.8744 19.9659 23.8744 20.0206C23.8744 20.0206 23.8744 20.0206 23.8744 20.1846C23.8744 20.2939 23.8198 20.5126 23.7104 20.6219C23.7104 20.2939 23.6558 20.3486 23.6558 20.0752C23.6558 19.9659 23.6011 19.8019 23.4918 19.6925C23.3278 19.5285 23.2184 19.4739 23.0544 19.4739C22.6717 19.4739 22.3984 19.8019 22.3984 20.0752V20.1299C22.3984 20.1846 22.3984 20.2392 22.3984 20.2392C22.3984 20.3486 22.289 20.5126 22.3437 20.6219C22.2344 20.6219 22.1797 20.3486 22.1797 20.2939C22.1797 20.2939 22.1797 20.2392 22.1797 20.1846C22.1797 19.9659 22.3984 19.4739 22.5624 19.4192H23.4371Z" fill="white"/>
<path d="M21.5236 19.2004C21.5783 19.2004 21.633 19.4191 21.633 19.4191C21.633 19.4738 21.5783 19.4738 21.469 19.5285C21.3596 19.5831 21.2503 19.5831 21.1409 19.6378C21.0316 19.6925 20.8676 19.7471 20.7036 19.8018C20.6489 19.7471 20.5942 19.6378 20.5942 19.5831C20.6489 19.4738 21.469 19.2004 21.5236 19.2004Z" fill="white"/>
<path d="M24.476 19.2004C24.5307 19.2004 25.4054 19.4738 25.4054 19.5831C25.4054 19.6378 25.3508 19.7471 25.2961 19.7471C25.2414 19.7471 25.0227 19.6378 24.9134 19.5831C24.7494 19.5285 24.5854 19.4738 24.4214 19.4191C24.3667 19.4191 24.3667 19.3644 24.3667 19.3644C24.4214 19.3644 24.476 19.2004 24.476 19.2004Z" fill="white"/>
<path d="M20.7587 19.0364C20.8134 19.091 20.8134 19.2004 20.8134 19.2551C20.8134 19.3097 20.5947 19.4191 20.54 19.4191C20.54 19.4191 20.4307 19.2551 20.4307 19.2004C20.4853 19.1457 20.704 19.0364 20.7587 19.0364Z" fill="white"/>
<path d="M25.2959 19.0364C25.3505 19.0364 25.6239 19.1457 25.6239 19.2004C25.6239 19.2004 25.5692 19.3097 25.5145 19.4191C25.5145 19.4191 25.1865 19.3097 25.1865 19.2551C25.1865 19.2004 25.2412 19.0364 25.2959 19.0364Z" fill="white"/>
<path d="M23.164 18.9818C23.164 18.9818 23.2187 18.9818 23.4374 18.9818C23.7654 18.9818 24.0934 19.0365 24.4214 19.1458V19.2005C24.4214 19.2552 24.3668 19.3645 24.3668 19.3645C24.3121 19.3645 24.0388 19.3098 23.9294 19.2552C23.8201 19.2552 23.6561 19.2552 23.4921 19.2005H23.164C23.164 19.2005 23.164 19.2005 23.1094 19.1458V18.9818C23.1094 19.0365 23.164 18.9818 23.164 18.9818Z" fill="white"/>
<path d="M23 18.9818C23 19.0365 23.0547 19.0365 23.0547 19.0912C23.0547 19.2552 23 19.2552 22.836 19.2552H22.672C22.508 19.2552 21.7973 19.4192 21.7426 19.4192C21.688 19.4192 21.6333 19.2552 21.6333 19.2552V19.2005C21.688 19.2005 21.7973 19.1458 21.9066 19.1458C22.1253 19.0912 22.3987 19.0912 22.6174 19.0365L23 18.9818Z" fill="white"/>
<path d="M23.8745 18.6538C23.9838 18.6538 25.1866 18.9272 25.1866 19.0365C25.1866 19.0912 25.1319 19.2552 25.0772 19.2552C24.8585 19.2005 24.5852 19.0912 24.3665 19.0365C24.2025 18.9818 23.9838 18.9818 23.8198 18.9272C23.8198 18.8178 23.8198 18.8178 23.8198 18.7631C23.8198 18.7631 23.8198 18.6538 23.8745 18.6538Z" fill="white"/>
<path d="M22.2344 18.6538C22.2891 18.7085 22.2891 18.8178 22.2891 18.8725C22.2891 18.9272 22.1797 18.9272 22.1251 18.9272C21.9611 18.9818 21.7424 18.9818 21.5784 19.0365C21.3597 19.0912 21.141 19.2005 20.9223 19.2552C20.9223 19.2005 20.8677 19.0912 20.8677 19.0365C20.8677 18.9818 21.0864 18.9272 21.141 18.9272C21.469 18.8178 21.8517 18.7085 22.2344 18.6538Z" fill="white"/>
<path d="M23.3825 18.5991C23.3825 18.5991 23.6012 18.5991 23.7105 18.6538L23.7652 18.7085C23.7652 18.7085 23.7652 18.7631 23.7652 18.8178C23.7652 18.8178 23.7652 18.8725 23.7652 18.9271C23.4918 18.9271 23.3825 18.8725 23.3278 18.8725H22.7811C22.7264 18.8725 22.5624 18.8725 22.3984 18.9271C22.3438 18.8725 22.3438 18.8178 22.3438 18.7631V18.7085C22.4531 18.7085 22.6718 18.6538 22.6718 18.6538H23.3825V18.5991Z" fill="white"/>
<path d="M21.36 18.4897C21.4147 18.5444 21.4694 18.6538 21.4694 18.6538V18.7084L20.4853 19.0911C20.4307 19.0364 20.4307 18.9271 20.4307 18.9271C20.4307 18.8724 20.54 18.8178 20.5947 18.8178C20.5947 18.7631 21.196 18.4897 21.36 18.4897Z" fill="white"/>
<path d="M24.6948 18.4351C24.7494 18.4351 25.7335 18.7631 25.7335 18.8724C25.7335 18.8724 25.6788 18.9818 25.6788 19.0364C25.6788 19.0364 25.6788 19.0364 25.6242 19.0364C25.5695 19.0364 25.1868 18.8724 24.9134 18.7631C24.8041 18.7084 24.6948 18.7084 24.5854 18.6537L24.5308 18.5991C24.5854 18.5991 24.6401 18.5444 24.6948 18.4351C24.6401 18.4897 24.6401 18.4351 24.6948 18.4351Z" fill="white"/>
<path d="M20.5394 18.3804C20.5941 18.435 20.6488 18.5444 20.6488 18.599C20.6488 18.6537 20.3754 18.7631 20.3208 18.7631C20.3208 18.7631 20.2114 18.5991 20.2114 18.5444C20.2114 18.4897 20.4848 18.3804 20.5394 18.3804Z" fill="white"/>
<path d="M25.5146 18.3258C25.5693 18.3258 25.8426 18.4898 25.8426 18.4898C25.8426 18.5445 25.788 18.6538 25.7333 18.6538C25.6786 18.6538 25.5146 18.5445 25.4053 18.4898C25.4053 18.4898 25.4053 18.4898 25.4053 18.4351L25.4599 18.3258C25.4599 18.3805 25.5146 18.3258 25.5146 18.3258Z" fill="white"/>
<path d="M23.2734 18.2164C23.3281 18.2164 23.4374 18.2164 23.6561 18.2164C23.8201 18.2164 24.5855 18.3258 24.5855 18.4351C24.5855 18.4898 24.5308 18.5991 24.5308 18.6538C24.3668 18.5991 24.2028 18.5991 24.0388 18.5444C23.8201 18.4898 23.3281 18.4898 23.3281 18.4898H23.164L23.1094 18.4351C23.1094 18.4351 23.1094 18.4351 23.1094 18.3258C23.1094 18.2164 23.164 18.2164 23.2734 18.2164Z" fill="white"/>
<path d="M22.9453 18.2164C23 18.2164 23 18.2164 23 18.2164C23 18.2164 23 18.2711 23 18.4351C23 18.4351 23 18.4351 22.9453 18.4898H22.7266C22.4533 18.4898 21.5786 18.6538 21.4692 18.6538C21.4692 18.5991 21.4146 18.4898 21.4146 18.4898V18.4351C21.7426 18.3258 22.0706 18.2711 22.3986 18.2711C22.672 18.2164 22.8906 18.2164 22.9453 18.2164Z" fill="white"/>
<path d="M25.0776 18.2164C25.1323 18.2164 25.4056 18.3258 25.4056 18.3258C25.4056 18.3804 25.351 18.4898 25.2963 18.4898C25.2416 18.4898 25.1323 18.4351 25.0229 18.3804V18.3258C25.0229 18.3258 25.0229 18.2711 25.0776 18.2164Z" fill="white"/>
<path d="M20.9773 18.2164C21.032 18.2164 21.0867 18.4351 21.0867 18.4351V18.4898C20.9773 18.5444 20.8133 18.5991 20.8133 18.5991C20.7586 18.5991 20.704 18.4351 20.704 18.3804C20.6493 18.3258 20.9226 18.2164 20.9773 18.2164Z" fill="white"/>
<path d="M23.9292 17.943H23.9839C24.0385 17.943 24.2025 17.9977 24.2572 17.9977C24.2572 17.9977 24.2572 17.9977 24.2572 18.0523C24.2572 18.107 24.2025 18.271 24.2025 18.271C24.1479 18.271 23.9839 18.2163 23.9292 18.2163L23.8745 18.1617C23.8745 18.107 23.8745 17.9977 23.9292 17.943Z" fill="white"/>
<path d="M22.1254 17.943C22.18 17.943 22.18 18.107 22.18 18.107C22.18 18.2163 21.852 18.2163 21.7973 18.2163C21.7973 18.1617 21.7427 18.0523 21.7427 18.0523C21.7427 17.9977 22.0707 17.943 22.1254 17.943Z" fill="white"/>
<path d="M23.4375 17.8884C23.4922 17.8884 23.8202 17.8337 23.8202 17.9977C23.8202 17.9977 23.8202 18.1071 23.8202 18.1617C23.8202 18.1617 23.7655 18.1617 23.7108 18.1617C23.6015 18.1617 23.5468 18.1617 23.4375 18.1071V18.0524C23.4375 17.9977 23.4375 17.9431 23.4375 17.8884Z" fill="white"/>
<path d="M22.5077 17.8884H22.6171C22.6717 17.9431 22.6717 17.9978 22.6717 18.0524V18.1071C22.6171 18.1618 22.5077 18.1618 22.4531 18.1618H22.289C22.289 18.1071 22.2344 17.9978 22.2344 17.9978C22.2344 17.8884 22.3984 17.8884 22.5077 17.8884Z" fill="white"/>
<path d="M25.187 17.8337C25.2416 17.8337 26.007 18.1071 26.007 18.1618C26.007 18.1618 25.9524 18.3258 25.8977 18.3804C25.6243 18.2711 25.351 18.1618 25.0776 18.0524C25.0776 17.9977 25.1323 17.8337 25.187 17.8337Z" fill="white"/>
<path d="M20.8676 17.8337C20.9223 17.8337 20.9769 18.0524 20.9769 18.0524C20.9769 18.0524 20.9769 18.1071 20.9223 18.1071C20.7583 18.1618 20.4849 18.2711 20.4849 18.2711C20.4849 18.2711 20.2662 18.3804 20.2116 18.3804C20.1569 18.3258 20.1022 18.2164 20.1022 18.1618C20.0476 18.1071 20.8676 17.8337 20.8676 17.8337Z" fill="white"/>
<path d="M23.5468 17.5057C23.6562 17.5057 24.2575 17.6151 24.3669 17.6151C24.3669 17.6151 24.3669 17.6151 24.3669 17.6697C24.3669 17.7244 24.3669 17.8338 24.2575 17.8884L23.4375 17.7791C23.4375 17.6697 23.4375 17.6151 23.4375 17.5604C23.4375 17.5057 23.4922 17.5057 23.5468 17.5057Z" fill="white"/>
<path d="M22.508 17.5057C22.508 17.5057 22.672 17.5057 22.672 17.5604C22.672 17.5604 22.672 17.6697 22.672 17.7244C22.672 17.7244 22.672 17.7791 22.6174 17.7791C22.344 17.7791 22.0707 17.8338 21.7427 17.8884C21.7427 17.8338 21.688 17.7244 21.688 17.6697V17.6151C21.7973 17.5604 22.3987 17.5057 22.508 17.5057Z" fill="white"/>
<path d="M22.2348 16.8496H23.9296C23.9842 16.8496 24.0936 16.9043 24.1482 17.0136H22.0161C22.0161 16.9589 22.1801 16.8496 22.2348 16.8496Z" fill="white"/>
<path d="M22.3437 16.6857H23.7651L23.8198 16.7403H23.7651H22.2891C22.2891 16.7403 22.2891 16.7403 22.2891 16.6857C22.2891 16.6857 22.3437 16.7403 22.3437 16.6857Z" fill="white"/>
<path d="M22.5625 16.5216H23.6012L23.7105 16.5763L23.6559 16.6309H22.6172C22.5625 16.6309 22.5078 16.6309 22.5078 16.5763C22.5078 16.5216 22.5078 16.5216 22.5625 16.5216Z" fill="white"/>
<path d="M22.7812 16.303H23.4372C23.4919 16.303 23.5466 16.3576 23.5466 16.3576C23.5466 16.3576 23.5466 16.4123 23.4919 16.4123H22.7265C22.6719 16.4123 22.6172 16.3576 22.6172 16.303C22.6172 16.303 22.7265 16.303 22.7812 16.303Z" fill="white"/>
<path d="M22.6176 15.975C22.8362 15.975 22.9456 16.0296 23.1096 16.0296C23.2189 16.0296 23.3829 15.975 23.5469 15.975V16.0296C23.5469 16.0296 23.4923 16.139 23.4376 16.1937C23.3829 16.1937 23.3283 16.1937 23.2736 16.1937H22.6722C22.6722 16.1937 22.6722 16.139 22.6176 16.139C22.6176 16.139 22.5629 16.0296 22.6176 15.975Z" fill="white"/>
<path d="M21.9062 15.5376C21.9609 15.5376 22.1249 15.6469 22.1249 15.7016H22.0702C22.0156 15.7016 21.8516 15.5923 21.8516 15.5376H21.9062Z" fill="white"/>
<path d="M22.1801 15.4829C22.2895 15.4829 22.3988 15.7016 22.3988 15.7563C22.3988 15.7563 22.3988 15.7563 22.3441 15.7563C22.2348 15.7563 22.0708 15.5922 22.0708 15.5376C22.1255 15.5376 22.1801 15.4829 22.1801 15.4829Z" fill="white"/>
<path d="M22.5078 15.4829C22.6171 15.4829 22.6171 15.7016 22.6171 15.7016C22.6171 15.7563 22.5624 15.7563 22.5624 15.8109C22.5078 15.8109 22.3984 15.6469 22.3984 15.5922C22.4531 15.5376 22.4531 15.4829 22.5078 15.4829Z" fill="white"/>
<path d="M23.9838 15.4829C24.0385 15.5376 24.0385 15.4829 23.9838 15.4829C24.0385 15.5922 23.8745 15.7563 23.8198 15.7563H23.7651C23.7651 15.7563 23.7651 15.7563 23.7651 15.7016C23.7651 15.7016 23.8745 15.4829 23.9838 15.4829Z" fill="white"/>
<path d="M23.7104 15.4829C23.765 15.4829 23.765 15.5376 23.765 15.5376C23.765 15.5922 23.6557 15.7563 23.5464 15.7563C23.4917 15.7563 23.4917 15.7016 23.4917 15.7016C23.4917 15.7016 23.601 15.4829 23.7104 15.4829Z" fill="white"/>
<path d="M23.3826 15.4829C23.4372 15.4829 23.4919 15.5922 23.4919 15.5922C23.4919 15.6469 23.4372 15.8656 23.3826 15.8656C23.3279 15.8656 23.3279 15.7016 23.3279 15.7016C23.2732 15.6469 23.2732 15.4829 23.3826 15.4829Z" fill="white"/>
<path d="M23.1093 15.4829C23.2187 15.4829 23.2187 15.5922 23.2187 15.6469C23.2187 15.7016 23.2187 15.8656 23.1093 15.8656C23 15.8656 23 15.6469 23 15.6469C23 15.5376 23 15.4829 23.1093 15.4829Z" fill="white"/>
<path d="M22.7812 15.4829C22.8906 15.4829 22.8906 15.5922 22.8906 15.6469C22.8906 15.7016 22.8359 15.8109 22.8359 15.8109C22.7266 15.8109 22.7266 15.5922 22.7266 15.5922C22.7266 15.5376 22.7266 15.4829 22.7812 15.4829Z" fill="white"/>
<path d="M20.9225 14.7722C21.0319 14.7722 21.0319 14.8816 21.0319 14.9362C21.0319 15.1549 20.7585 15.2096 20.6492 15.2096C20.4305 15.2096 20.0478 14.9909 19.8838 14.7722H20.9225Z" fill="white"/>
<path d="M25.0227 14.7175C25.0227 14.7175 24.804 15.2096 24.3666 15.4282L24.2573 15.3736C24.2026 15.3736 24.1479 15.4282 24.0933 15.4282C24.0386 15.4282 23.9839 15.3736 23.9839 15.3736C23.9293 15.3736 23.8746 15.4282 23.8746 15.4282C23.8746 15.4282 23.7653 15.3736 23.7106 15.3736C23.6559 15.3736 23.5466 15.4282 23.5466 15.4282C23.5466 15.4282 23.4372 15.3736 23.3826 15.3736C23.3279 15.3736 23.2732 15.4282 23.2186 15.4282C23.1639 15.4282 23.1092 15.3736 23.0546 15.3736C22.9999 15.3736 22.9452 15.4282 22.9452 15.4282C22.8905 15.4282 22.8359 15.3736 22.8359 15.3736C22.7812 15.3736 22.6719 15.4282 22.6719 15.4282C22.6172 15.4282 22.5625 15.3736 22.5079 15.3736L22.3985 15.4282C22.3438 15.4282 22.2345 15.3736 22.2345 15.3736C22.1798 15.3736 22.1252 15.4282 22.0705 15.4282L21.9065 15.3736C21.7971 15.3736 21.7425 15.4829 21.7425 15.4829C21.6878 15.4829 21.6878 15.4282 21.6331 15.4282C21.4691 15.3189 21.3598 15.1002 21.2505 14.9909C21.1958 14.9362 21.1411 14.7175 21.1411 14.7175H25.0227Z" fill="white"/>
<path d="M25.4053 14.5536V14.6629C25.4053 14.6083 25.4053 14.6629 25.3506 14.6629C25.296 14.6629 21.1957 14.6629 21.1957 14.6629C21.1411 14.6629 21.0864 14.6629 21.0317 14.6629V14.5536H25.4053Z" fill="white"/>
<path d="M19.3916 14.3895C19.4462 14.3895 19.5009 14.5535 19.6649 14.5535H20.8676L20.9223 14.6082H19.5009C19.4462 14.6082 19.2822 14.4989 19.2822 14.4442C19.2822 14.3895 19.3916 14.3895 19.3916 14.3895Z" fill="white"/>
<path d="M23.6561 14.1161C23.7108 14.1161 23.9295 14.2801 24.0388 14.3894L23.9842 14.4441C23.8201 14.4441 23.6015 14.2254 23.6561 14.1161Z" fill="white"/>
<path d="M23.164 14.0615C23.2187 14.0615 23.2734 14.2255 23.2734 14.2255C23.2734 14.3349 23.2187 14.3349 23.164 14.3349C23.0547 14.3895 23.0547 14.3349 23.0547 14.3349C23.0547 14.2802 23.1094 14.0615 23.164 14.0615Z" fill="white"/>
<path d="M23.3281 14.0615C23.4374 14.0615 23.6015 14.2802 23.6015 14.3349C23.6015 14.3895 23.5468 14.3895 23.4921 14.3895C23.3828 14.3895 23.2734 14.1709 23.2734 14.1162C23.3281 14.1162 23.3281 14.1162 23.3281 14.0615Z" fill="white"/>
<path d="M22.7268 14.0615C22.7268 14.1709 22.5628 14.3895 22.5081 14.3895H22.3988C22.3988 14.3895 22.3988 14.3895 22.3988 14.3349C22.3441 14.3349 22.6174 14.1162 22.7268 14.0615Z" fill="white"/>
<path d="M22.9452 14.0615C22.9999 14.1162 22.9999 14.0615 22.9452 14.0615C22.9999 14.1709 22.8906 14.3895 22.7812 14.3895C22.7265 14.3895 22.6719 14.3895 22.6719 14.3349C22.7265 14.2802 22.8359 14.0615 22.9452 14.0615Z" fill="white"/>
<path d="M22.7809 13.8428H23.6556L23.7103 13.8974C23.7103 13.8974 23.6556 13.8974 23.6556 13.9521H22.7809C22.7809 13.9521 22.7809 13.9521 22.7263 13.9521V13.8974C22.6716 13.8428 22.7263 13.8428 22.7809 13.8428Z" fill="white"/>
<path d="M26.0068 13.7881C26.3348 13.7881 26.7175 13.9521 26.7175 14.3348C26.7175 14.7721 26.0615 15.1548 25.6788 15.2095C25.5148 15.2642 25.3508 15.3188 25.1867 15.3188C24.9134 15.3735 24.5854 15.4282 24.3667 15.6469C24.3667 15.6469 24.3667 15.6469 24.3667 15.5922C24.3667 15.4282 24.8587 15.2642 24.8587 15.2642C25.2414 15.1548 25.6241 15.1002 26.0068 14.8815C26.3348 14.7175 26.4988 14.5535 26.4988 14.2801C26.4988 14.0068 26.1708 13.8974 26.0068 13.8974C25.8975 13.8974 25.6241 13.9521 25.5694 14.0614L25.6241 14.1161C25.6788 14.1161 25.6788 14.2254 25.6788 14.2254C25.6788 14.3348 25.5694 14.3895 25.4601 14.3895C25.3508 14.3895 25.1867 14.3348 25.1867 14.1708L25.2414 14.0614C25.5148 13.8974 25.7881 13.7881 26.0068 13.7881Z" fill="white"/>
<path d="M23.164 13.3508C23.2187 13.3508 23.328 13.4055 23.328 13.5148C23.328 13.6242 23.2187 13.6788 23.164 13.6788C23.0547 13.6788 23 13.5695 23 13.5148C23 13.4055 23.0547 13.3508 23.164 13.3508Z" fill="white"/>
<path d="M21.852 13.0227C21.7973 13.132 21.6333 13.132 21.524 13.1867C21.4146 13.2414 21.524 13.4601 21.36 13.4601C21.36 13.4601 21.1413 13.4054 21.0866 13.4054C21.0319 13.4054 21.0319 13.4054 20.9226 13.4601C21.0319 13.5694 21.1413 13.6241 21.1413 13.7334V13.7881C21.1413 13.8428 20.9226 13.9521 20.8133 13.9521H20.4852C20.4306 13.9521 20.3212 14.0614 20.2666 14.1161C20.2119 14.0614 20.1572 14.0068 20.1572 13.9521C20.1572 13.8428 20.3212 13.8974 20.3759 13.8974H20.5399C20.6493 13.8974 20.7586 13.7881 20.7586 13.6787C20.7586 13.5147 20.4852 13.5147 20.4852 13.2961C20.4852 13.132 20.6493 13.132 20.7586 13.132C20.8133 13.132 21.1413 13.2414 21.196 13.2414C21.3053 13.2414 21.4146 13.132 21.4693 13.0774C21.524 13.0227 21.6333 13.0227 21.7426 13.0227C21.7973 13.0774 21.7973 13.0774 21.852 13.0227Z" fill="white"/>
<path d="M23.1092 27.7837C23.2732 27.7837 23.4372 27.893 23.4372 28.057C23.4372 29.5331 23.4919 29.5331 23.4372 29.5331C23.4372 29.5878 23.4372 29.6424 23.4372 29.6971C23.4372 29.6971 23.4919 29.8064 23.4919 29.9158C23.5466 30.1891 23.8199 30.3531 24.0386 30.3531C24.6946 30.3531 26.0067 29.4784 26.4987 28.9864C26.4441 28.9317 26.3347 28.8224 26.2801 28.7677C26.2801 28.7677 26.1707 28.6584 26.1707 28.6037C26.1707 28.549 26.9361 28.1117 26.9361 28.1117C27.0454 28.057 27.1548 28.0023 27.2095 27.893C27.2641 27.8383 27.4828 27.6743 27.5375 27.6743C27.5921 27.6743 27.5375 28.0023 27.5375 28.0023C27.5375 28.1117 27.4828 28.3304 27.4828 28.385C27.4828 28.385 27.4281 28.6037 27.4281 28.6584C27.4281 28.8224 27.2641 29.1504 27.2095 29.2597C27.2095 29.3144 27.1548 29.3144 27.1548 29.3144C27.0454 29.3144 26.7721 29.0957 26.7174 29.0957C26.6628 29.0957 26.1161 29.6424 25.8974 29.8064C25.7334 29.9158 25.624 30.0251 25.46 30.1345C25.2413 30.4625 23.6013 31.7199 23.0546 31.7199C22.5079 31.7199 20.8678 30.4625 20.5944 30.2438C20.4851 30.1345 20.3211 30.0251 20.1571 29.9158C19.9384 29.6971 19.3917 29.2051 19.337 29.2051C19.2823 29.2051 19.0637 29.4237 18.8997 29.4237L18.845 29.3691C18.7903 29.2597 18.6263 28.9317 18.6263 28.7677C18.6263 28.7677 18.5716 28.549 18.5716 28.4944C18.5716 28.4944 18.517 28.221 18.517 28.1117C18.517 28.1117 18.4623 27.7837 18.517 27.7837C18.5716 27.7837 18.7903 27.9477 18.845 28.0023C18.9543 28.057 19.009 28.1117 19.1183 28.221C19.173 28.221 19.8837 28.6584 19.8837 28.713C19.8837 28.7677 19.7744 28.8771 19.7744 28.8771C19.7197 28.8771 19.6104 29.0411 19.5557 29.0957C20.0477 29.5878 21.3598 30.4625 22.0158 30.4625C22.2345 30.4625 22.5079 30.2985 22.5625 30.0251C22.5625 29.9704 22.6172 29.8611 22.6172 29.8064C22.6172 29.8064 22.6172 29.6971 22.6172 29.6424C22.6172 29.6424 22.6172 29.6424 22.6172 28.1663C22.6172 27.9477 22.7812 27.893 22.8905 27.893H23.1092V27.7837Z" fill="white"/>
<path d="M18.954 23.1913V26.5262C18.954 26.5262 19.2821 26.7995 20.6488 26.4715C20.6488 26.4715 21.9609 25.9795 22.9996 26.5808V23.1366C22.9996 23.1366 22.3436 22.5353 20.7581 22.9726C20.7581 22.9726 19.7194 23.3006 19.2821 23.1913C18.8447 23.082 18.954 23.1913 18.954 23.1913Z" fill="white"/>
<path d="M22.9453 27.5102C22.8906 27.5102 22.8906 27.5102 22.8359 27.5102C22.8359 27.5102 22.8359 27.5102 22.8359 27.4556C22.8359 27.4009 22.9453 27.0729 22.9453 27.0729C22.9453 27.1275 22.9453 27.3462 22.9453 27.5102Z" fill="white"/>
<path d="M23 27.0729C23 27.1275 23.0547 27.1275 23.0547 27.1822C23.0547 27.2916 23.0547 27.4009 23.0547 27.4009V27.5102H22.9453C22.9453 27.4556 22.9453 27.4556 22.9453 27.4556V27.1822C23 27.1275 23 27.0729 23 27.0729Z" fill="white"/>
<path d="M22.8359 27.0183V27.073C22.8359 27.073 22.7812 27.2917 22.7265 27.401H22.6719V27.3463C22.6719 27.3463 22.8359 27.073 22.8359 27.0183Z" fill="white"/>
<path d="M22.7812 27.0183C22.7265 27.1276 22.6718 27.237 22.6172 27.3463C22.6172 27.3463 22.6172 27.3463 22.5625 27.3463C22.5078 27.3463 22.5078 27.3463 22.5078 27.2917C22.5078 27.237 22.7265 27.0183 22.7812 27.0183Z" fill="white"/>
<path d="M22.6718 26.9088C22.6171 27.0182 22.5078 27.1275 22.4531 27.2368C22.3984 27.2368 22.3984 27.1822 22.3984 27.1822C22.3984 27.1275 22.6171 26.9088 22.6718 26.9088Z" fill="white"/>
<path d="M27.1002 23.1913V26.5262C27.1002 26.5262 26.7722 26.7995 25.4055 26.4715C25.4055 26.4715 24.0934 25.9795 23.0547 26.5808V23.1366C23.0547 23.1366 23.7107 22.5899 25.2961 22.9726C25.2961 22.9726 26.3349 23.3006 26.7722 23.1913C27.2096 23.082 27.1002 23.1913 27.1002 23.1913Z" fill="white"/>
<path d="M23.1094 27.5102C23.164 27.5102 23.164 27.5102 23.2187 27.5102C23.2187 27.5102 23.2187 27.5102 23.2187 27.4556C23.2187 27.4009 23.1094 27.0729 23.1094 27.0729C23.1094 27.1275 23.1094 27.3462 23.1094 27.5102Z" fill="white"/>
<path d="M23.2183 27.0183V27.073C23.2183 27.073 23.2729 27.2917 23.3276 27.401H23.3823V27.3463C23.3823 27.3463 23.2183 27.073 23.2183 27.0183Z" fill="white"/>
<path d="M23.2734 27.0183C23.3281 27.1276 23.3828 27.237 23.4374 27.3463C23.4374 27.3463 23.4374 27.3463 23.4921 27.3463C23.5468 27.3463 23.5468 27.3463 23.5468 27.2917C23.5468 27.237 23.3281 27.0183 23.2734 27.0183Z" fill="white"/>
<path d="M27.2641 23.2459V26.6901L27.2095 26.6355L27.1548 26.5808V23.1366L27.2641 23.2459ZM27.4281 23.3006V26.8541L27.3188 26.7448V23.2459L27.4281 23.3006ZM27.5375 23.4099V27.0728L27.4828 27.0181L27.4281 26.9635V23.4099H27.5375Z" fill="white"/>
<path d="M23.3828 26.9088C23.4375 27.0182 23.5468 27.1275 23.6015 27.2368C23.6562 27.2368 23.6562 27.1822 23.6562 27.1822C23.6562 27.1275 23.4375 26.9088 23.3828 26.9088Z" fill="white"/>
<path d="M27.6469 23.5194H27.7562V27.3463H23.7106C23.5466 27.565 23.328 27.729 23.0546 27.729C22.7813 27.729 22.5079 27.565 22.3986 27.3463H18.2983V23.5194H18.4077V27.1823H22.3439V27.2369C22.4532 27.4556 22.7266 27.6196 23.0546 27.6743C23.328 27.6743 23.6013 27.5103 23.7653 27.2369V27.1823H27.7015V23.5194H27.6469Z" fill="white"/>
<path d="M20.2119 14.3895C20.2421 14.3895 20.2666 14.365 20.2666 14.3348C20.2666 14.3046 20.2421 14.2802 20.2119 14.2802C20.1817 14.2802 20.1572 14.3046 20.1572 14.3348C20.1572 14.365 20.1817 14.3895 20.2119 14.3895Z" fill="white"/>
<path d="M24.2573 15.5376C24.2026 15.5376 24.0386 15.6469 24.0386 15.7016H24.0932C24.1479 15.7016 24.3119 15.5923 24.3119 15.5376H24.2573Z" fill="white"/>
<path d="M22.9999 22.9727L22.6719 22.754C22.6719 22.6993 22.6719 22.5353 22.6719 22.4806C22.6719 22.2619 22.8359 22.2073 22.9452 22.2073H23.0546C23.2186 22.2073 23.3826 22.3166 23.3826 22.4806C23.3826 22.5353 23.3826 22.6993 23.3826 22.754L22.9999 22.9727Z" fill="white"/>
<path d="M20.7041 21.0046H21.1961V21.7153L20.7041 21.606V21.0046Z" fill="white"/>
<path d="M19.8838 21.0592H20.5945V21.5512L19.8838 21.4419V21.0592Z" fill="white"/>
<path d="M19.829 21.0592L19.665 21.1685V21.5512L19.829 21.4966V21.0592Z" fill="white"/>
<path d="M20.9223 21.0592C21.0317 21.0592 21.0864 21.1139 21.0864 21.1685C21.0864 21.2232 21.0317 21.2779 20.977 21.2779C20.977 21.2779 20.9223 21.2232 20.8677 21.2232C20.9223 21.2232 20.977 21.2232 20.977 21.1685C20.977 21.1139 20.977 21.0592 20.9223 21.0592Z" fill="black"/>
<path d="M20.9223 21.3326C21.0317 21.3326 21.0864 21.3873 21.0864 21.442C21.0864 21.4967 21.0317 21.5513 20.977 21.5513C20.977 21.5513 20.9223 21.4967 20.8677 21.4967C20.9223 21.4967 20.977 21.4967 20.977 21.442C20.977 21.3873 20.977 21.3873 20.9223 21.3326Z" fill="black"/>
<path d="M19.8291 21.4966L20.5944 21.6059V21.7153L19.7197 21.6059L19.8291 21.4966Z" fill="white"/>
<path d="M20.7041 21.6606L21.1961 21.77V21.8793L20.7041 21.77V21.6606Z" fill="white"/>
<path d="M21.3052 21.7699L22.9999 22.0432V22.1526L21.3052 21.8792V21.7699Z" fill="white"/>
<path d="M25.3504 21.0046H24.8584V21.7153L25.3504 21.606V21.0046Z" fill="white"/>
<path d="M26.1707 21.0592H25.46V21.5512L26.1707 21.4419V21.0592Z" fill="white"/>
<path d="M25.0229 21.0592C25.1323 21.0592 25.1869 21.1139 25.1869 21.1685C25.1869 21.2232 25.1323 21.2779 25.0776 21.2779C25.0229 21.2779 25.0229 21.2232 24.9683 21.2232C25.0229 21.2232 25.0776 21.2232 25.0776 21.1685C25.0776 21.1139 25.0229 21.0592 25.0229 21.0592Z" fill="black"/>
<path d="M25.0229 21.3326C25.1323 21.3326 25.1869 21.3873 25.1869 21.442C25.1869 21.4967 25.1323 21.5513 25.0776 21.5513C25.0229 21.5513 25.0229 21.4967 24.9683 21.4967C25.0229 21.4967 25.0776 21.4967 25.0776 21.442C25.0776 21.3873 25.0229 21.3873 25.0229 21.3326Z" fill="black"/>
<path d="M26.1707 21.4966L25.46 21.6059V21.7153L26.116 21.6059L26.1707 21.4966Z" fill="white"/>
<path d="M25.3504 21.6606L24.8584 21.77V21.8793L25.3504 21.77V21.6606Z" fill="white"/>
<path d="M22.9999 21.9886L21.3052 21.6606V21.0592H22.9999H24.7494V21.6606L22.9999 21.9886Z" fill="white"/>
<path d="M24.7494 21.7699L23 22.0432V22.1526L24.7494 21.8792V21.7699Z" fill="white"/>
<path d="M23.7655 23.9567C23.9842 23.9567 24.0935 24.066 24.0935 24.23C24.0935 24.2847 24.0388 24.3394 23.9842 24.4487C24.0388 24.558 24.1482 24.6127 24.1482 24.722C24.1482 24.9407 23.8748 24.9954 23.7108 24.9954C23.6561 24.9954 23.6015 24.9954 23.3828 24.9954C23.3828 24.9954 23.3828 24.9954 23.3281 24.9954C23.3281 24.9407 23.3828 24.9407 23.3828 24.886V24.1753C23.3828 24.1207 23.3281 24.1207 23.3281 24.066C23.4375 24.0113 23.4921 23.9567 23.7655 23.9567Z" fill="black"/>
<path d="M24.6947 24.066C24.968 24.066 25.0774 24.3394 25.0774 24.5034C25.0774 24.7221 24.9133 24.9954 24.64 24.9954C24.3666 24.9954 24.2026 24.7221 24.2026 24.5581C24.2573 24.3394 24.4213 24.066 24.6947 24.066Z" fill="black"/>
<path d="M25.2412 24.066C25.6239 24.066 25.5145 24.3394 25.7332 24.6127C25.7879 24.5581 25.7879 24.3941 25.7879 24.3394C25.7879 24.2847 25.7879 24.2847 25.7332 24.1754C25.7332 24.1754 25.7332 24.1754 25.7879 24.1754C25.8426 24.1754 25.9519 24.1754 26.0066 24.23C25.8426 24.3394 25.8972 24.5034 25.8972 24.6127C25.8972 24.8314 25.8972 24.9954 25.8426 25.1048C25.6239 24.8861 25.5692 24.6127 25.4052 24.4487C25.4052 24.4487 25.4052 24.4487 25.4052 24.5034C25.4052 24.6127 25.3505 24.8861 25.3505 24.8861C25.3505 24.9408 25.4052 24.9954 25.4599 25.0501C25.4052 25.0501 25.2959 25.0501 25.1865 25.0501C25.2412 24.9408 25.2412 24.7767 25.2412 24.6674L25.2959 24.2847C25.2959 24.23 25.2412 24.1754 25.1865 24.1207C25.2412 24.1207 25.2412 24.066 25.2412 24.066Z" fill="black"/>
<path d="M26.2255 24.23C26.3348 24.23 26.4988 24.23 26.4988 24.23L26.4442 24.2846C26.4442 24.2846 26.4988 24.5033 26.5535 24.6127C26.6082 24.722 26.6082 24.9407 26.7722 25.05V25.1047C26.6629 25.1047 26.5535 25.1047 26.4442 25.1047C26.4442 25.1047 26.4988 25.05 26.4988 24.9954C26.4988 24.9407 26.4442 24.8313 26.3895 24.8313H26.2255C26.2255 24.8313 26.1708 24.9407 26.1708 24.9954C26.1708 24.9954 26.1708 25.05 26.2255 25.1047C26.1162 25.1047 26.0615 25.1047 25.9521 25.1047C25.9521 25.05 26.0615 25.05 26.0615 24.9954C26.1708 24.7767 26.2802 24.3393 26.2802 24.3393C26.2802 24.2846 26.2255 24.2847 26.2255 24.23Z" fill="black"/>
<path d="M24.7494 24.1207C24.8588 24.1207 24.9134 24.2301 24.9134 24.3394C24.9134 24.4487 24.9134 24.4487 24.9134 24.5034C24.9134 24.5034 24.8588 24.9408 24.6948 24.9408C24.5307 24.9408 24.4761 24.6674 24.4761 24.6128C24.4761 24.5034 24.5307 24.1207 24.7494 24.1207Z" fill="white"/>
<path d="M26.3349 24.5034C26.3349 24.5034 26.4443 24.6674 26.4443 24.7221C26.4443 24.7221 26.4443 24.7221 26.4443 24.7768H26.2803C26.2803 24.7768 26.2803 24.7768 26.2803 24.7221C26.2803 24.6674 26.2803 24.5581 26.3349 24.5034Z" fill="white"/>
<path d="M23.7104 24.5034C23.8198 24.5034 23.8744 24.6128 23.8744 24.6674C23.8744 24.7768 23.8198 24.8861 23.7104 24.8861C23.6557 24.8861 23.6557 24.8861 23.6011 24.8314V24.5581C23.6557 24.5034 23.6557 24.5034 23.7104 24.5034Z" fill="white"/>
<path d="M23.7656 24.066C23.8749 24.066 23.9296 24.1207 23.9296 24.23C23.9296 24.3394 23.8749 24.3941 23.7656 24.3941C23.7109 24.3941 23.7109 24.3941 23.7109 24.3394C23.7109 24.1207 23.7109 24.066 23.7109 24.066C23.7109 24.066 23.7109 24.066 23.7656 24.066Z" fill="white"/>
<path d="M22.1249 23.9567H22.3436V24.1753C22.2889 24.1753 22.2889 24.066 22.1796 24.0113H22.1249C22.0702 24.0113 21.9609 24.0113 21.9609 24.1207C21.9609 24.3394 22.4529 24.3394 22.4529 24.6674C22.4529 24.8314 22.3436 24.9407 22.1796 24.9407C22.1249 24.9407 21.9609 24.886 21.9062 24.886C21.8515 24.8314 21.8515 24.7767 21.8515 24.6674C21.8515 24.6674 21.8515 24.6127 21.8515 24.558C21.9062 24.6674 22.0156 24.7767 22.1796 24.7767C22.2342 24.7767 22.2889 24.722 22.2889 24.6674C22.2889 24.4487 21.7969 24.4487 21.7969 24.1207C21.8515 24.066 21.9609 23.9567 22.1249 23.9567Z" fill="black"/>
<path d="M21.5237 24.066C21.5783 24.066 21.5783 24.066 21.5783 24.1207V24.3394C21.5237 24.2847 21.5237 24.23 21.469 24.23C21.4143 24.1754 21.3596 24.1754 21.305 24.1754C21.305 24.1754 21.141 24.1754 21.141 24.23C21.141 24.3394 21.141 24.3941 21.141 24.3941C21.141 24.3941 21.141 24.5034 21.1956 24.5034C21.2503 24.5034 21.305 24.4487 21.3596 24.3941V24.4487C21.3596 24.4487 21.3596 24.4487 21.3596 24.6674C21.305 24.6127 21.2503 24.5581 21.1956 24.5581C21.141 24.5581 21.141 24.6127 21.141 24.6127C21.141 24.7221 21.141 24.7767 21.141 24.7767C21.141 24.8314 21.141 24.8861 21.141 24.8861C21.141 24.9408 21.1956 24.9408 21.2503 24.9408C21.3596 24.9408 21.5237 24.8861 21.5783 24.7221C21.5783 24.7221 21.5783 24.7221 21.5783 24.7767C21.5783 24.7767 21.5783 24.8861 21.5237 24.9408C21.3596 24.9954 21.0316 25.0501 20.977 25.0501H20.813L20.8676 24.9954C20.8676 24.9408 20.8676 24.8861 20.8676 24.8861L20.813 24.2847C20.813 24.23 20.7583 24.1754 20.7036 24.1207V24.066C21.0863 24.1207 21.469 24.066 21.5237 24.066Z" fill="black"/>
<path d="M20.4847 24.1754C20.7034 24.1754 20.8128 24.2848 20.8128 24.4488C20.8128 24.6674 20.7034 24.7768 20.3754 24.7768C20.3207 24.7768 20.3207 24.8861 20.3207 24.8861C20.3207 24.8861 20.3207 25.0501 20.3754 25.1048C20.3754 25.1048 20.4301 25.1595 20.4847 25.1595C20.4301 25.2141 20.3207 25.2141 20.2661 25.2141C20.1021 25.2141 20.1021 25.2141 20.1021 25.2141L20.1567 25.1595C20.1567 25.1048 20.1567 25.0501 20.1567 24.9955V24.3941C20.1567 24.3394 20.1567 24.3394 20.1021 24.2848C20.1567 24.2301 20.3207 24.1754 20.4847 24.1754Z" fill="black"/>
<path d="M19.5557 24.23C19.6103 24.23 19.6103 24.23 19.829 24.23C19.829 24.2847 19.829 24.3393 19.829 24.394C19.829 24.394 19.829 24.4487 19.829 24.5033C19.7743 24.4487 19.7743 24.394 19.7197 24.394C19.665 24.3393 19.6103 24.3393 19.5557 24.3393C19.501 24.3393 19.4463 24.3393 19.4463 24.4487C19.4463 24.558 19.829 24.722 19.7743 24.7767L19.829 24.8313C19.829 24.8313 19.8837 24.886 19.8837 24.9407C19.8837 24.9407 19.9383 24.9407 19.9383 24.9954C19.9383 24.9954 19.9383 24.9954 19.9383 25.05C19.9383 25.05 19.9383 25.05 19.9383 25.1047C19.8837 25.1594 19.8837 25.214 19.829 25.2687C19.7743 25.214 19.665 25.214 19.665 25.214C19.6103 25.214 19.501 25.1594 19.4463 25.1594C19.3916 25.1594 19.3916 25.1594 19.337 25.1594C19.337 25.1594 19.337 25.1047 19.337 24.9407C19.337 24.9407 19.337 24.886 19.3916 24.886C19.501 24.9954 19.5557 25.1594 19.665 25.1594C19.7197 25.1594 19.7743 25.1047 19.7743 25.05C19.7743 24.8313 19.337 24.8313 19.337 24.5033C19.2823 24.394 19.3916 24.23 19.5557 24.23Z" fill="black"/>
<path d="M20.4306 24.2847C20.54 24.2847 20.5946 24.4487 20.5946 24.5033C20.5946 24.6127 20.54 24.722 20.4306 24.722C20.4306 24.722 20.3213 24.722 20.3213 24.6674C20.3213 24.5033 20.3213 24.4487 20.3213 24.4487C20.3213 24.2847 20.3213 24.2847 20.4306 24.2847Z" fill="white"/>
<path d="M22.9999 33.5239C21.1958 32.7585 15.1274 29.697 15.1274 22.5899V21.8245C15.5648 21.7152 16.6035 21.3872 16.9862 21.2778C16.9862 21.2778 17.6422 21.0045 18.7356 21.4419C18.7356 21.4419 20.5397 22.2072 22.4532 22.3712C22.5079 22.3712 22.5079 22.6993 22.5079 22.7539H22.4532C22.3985 22.7539 22.3985 22.7539 22.3438 22.7539C22.1252 22.6993 21.9612 22.6993 21.6878 22.6993C21.3051 22.6993 21.2504 22.7539 20.7584 22.8086C20.7038 22.8086 20.4304 22.8633 20.3211 22.9179C20.0477 23.0273 19.7197 23.0819 19.4463 23.0819C19.3917 23.0819 19.173 23.0273 19.0637 23.0273C18.9543 23.0273 18.845 23.0273 18.845 23.0273C18.7903 23.0273 18.4623 23.3006 18.353 23.3553C18.2983 23.3553 18.1343 23.3006 18.1343 23.41V27.3462H22.2345C22.2892 27.3462 22.5079 27.7289 22.5079 27.7289V29.533C22.5079 29.533 22.4532 29.697 22.4532 29.7517C22.4532 29.7517 22.3438 29.9703 22.2892 30.025C22.1798 30.1343 22.0705 30.1343 21.9612 30.1343C21.4145 30.1343 20.1571 29.3143 19.7744 28.8769C19.7744 28.8769 20.0477 28.6036 20.0477 28.5489C20.0477 28.4396 19.7744 28.3302 19.7197 28.3302C19.665 28.3302 19.6104 28.2756 19.5557 28.2209C19.4463 28.1662 19.2823 28.0569 19.1183 27.9476C19.0637 27.9476 18.681 27.6195 18.517 27.6195C18.4076 27.6195 18.353 27.7835 18.353 27.8382V28.2756C18.353 28.2756 18.4076 28.5489 18.4076 28.7129C18.4623 28.8769 18.517 29.0409 18.5716 29.2596C18.5716 29.2596 18.7356 29.5876 18.845 29.5876L19.2823 29.3143C19.337 29.3143 19.6104 29.6423 19.665 29.697C19.829 29.861 19.993 30.025 20.2117 30.189C20.4851 30.4077 20.8131 30.6264 21.0864 30.845C21.1958 30.8997 21.3051 31.0091 21.4145 31.0637C21.5785 31.1731 21.7425 31.2824 21.9065 31.3917C21.9612 31.4464 22.0705 31.4464 22.1252 31.5011C22.3438 31.6104 22.6719 31.8291 22.8905 31.8291H23.0545C23.2732 31.8291 23.6012 31.6104 23.8199 31.5011C23.8746 31.4464 23.9839 31.4464 24.0386 31.3917C24.2026 31.2824 24.3666 31.1731 24.5306 31.0637C24.64 31.0091 24.7493 30.8997 24.8586 30.845C25.132 30.6264 25.46 30.4077 25.7334 30.189C25.952 30.025 26.1161 29.8063 26.2801 29.697C26.3347 29.6423 26.6081 29.3143 26.6627 29.3143L27.1001 29.5876C27.2094 29.5876 27.3188 29.2596 27.3735 29.2596C27.4281 29.0956 27.4828 28.8769 27.5375 28.7129C27.5921 28.6036 27.5921 28.3302 27.5921 28.2756V27.8382C27.5921 27.7835 27.5375 27.6742 27.4281 27.6742C27.2641 27.6742 26.8814 28.0569 26.7721 28.1116C26.6081 28.2209 26.4987 28.2756 26.3347 28.3849C26.2801 28.4396 26.2254 28.4396 26.1707 28.4942C26.1161 28.4942 25.8427 28.6036 25.8427 28.7129C25.8427 28.7676 26.1161 29.0409 26.1161 29.0409C25.7334 29.4783 24.476 30.2983 23.9293 30.2983C23.8199 30.2983 23.7106 30.2983 23.6012 30.189C23.5466 30.0797 23.4372 29.9157 23.4372 29.9157C23.4372 29.9157 23.3826 29.7517 23.3826 29.697V27.8929C23.3826 27.8929 23.6012 27.5102 23.6559 27.5102H27.7561V23.574C27.7561 23.4646 27.5375 23.5193 27.5375 23.4646C27.4281 23.41 27.1548 23.1366 27.0454 23.1366C26.9908 23.1366 26.8268 23.1366 26.7174 23.1913C26.6081 23.1913 26.4987 23.246 26.3347 23.246C26.0614 23.1366 25.7334 23.246 25.46 23.0819C25.4053 23.0273 25.132 22.9726 25.0773 22.9726C24.5853 22.9179 24.5853 22.8633 24.2026 22.8633C23.9839 22.8633 23.7653 22.8633 23.5466 22.8633C23.4919 22.8633 23.4919 22.8633 23.4372 22.8633H23.3826C23.3826 22.8086 23.3279 22.5353 23.4372 22.5353C25.3507 22.3712 27.1548 21.6059 27.1548 21.6059C28.3028 21.1685 28.9042 21.4419 28.9042 21.4419C29.3416 21.5512 30.3803 21.8792 30.7083 21.9886V22.6993C30.8723 29.697 24.804 32.8132 22.9999 33.5239Z" fill="#009ADA"/>
<path d="M18.6264 26.9089L18.5718 27.0183V23.4101L18.6264 23.3554V26.9089ZM18.8998 23.1914V26.5809L18.7905 26.6903V23.2461L18.8998 23.1914ZM18.7358 23.3007V26.7449L18.6264 26.8543V23.3554L18.7358 23.3007Z" fill="white"/>
<path d="M18.7358 26.9635H18.7905C18.8452 26.9635 18.8998 27.0182 19.0092 27.0182C19.2825 27.0729 19.6652 27.0729 20.1573 27.0182L20.4306 26.9635L20.9773 26.8542C20.9773 26.8542 21.196 26.7995 21.4693 26.7995C21.7427 26.7995 22.1254 26.7995 22.3987 27.0182C22.1254 26.8542 21.7973 26.7995 21.524 26.8542C21.36 26.8542 21.196 26.9089 21.1413 26.9089C21.2506 26.9089 21.4147 26.8542 21.5787 26.8542C21.852 26.8542 22.18 26.9089 22.3987 27.0182C22.18 26.8542 21.852 26.8542 21.5787 26.8542C21.3053 26.8542 21.0866 26.9089 21.0866 26.9089L20.4853 27.0182L20.2119 27.0729C19.6652 27.1276 19.2825 27.1276 19.0639 27.0729C18.9545 27.0729 18.8452 27.0182 18.7358 26.9635C18.7905 27.0182 18.7358 27.0182 18.7358 26.9635ZM18.9545 26.6355C19.3372 26.7995 19.8292 26.7449 20.2119 26.6355L21.032 26.4169C21.032 26.4169 21.3053 26.3622 21.688 26.3622C22.0707 26.3622 22.4534 26.4169 22.7814 26.6355C22.508 26.4169 22.0707 26.3622 21.7427 26.3622C21.36 26.3622 21.0866 26.4169 21.0866 26.4169L20.2666 26.6355C19.8292 26.7995 19.3372 26.8542 18.9545 26.6355ZM18.8452 26.8542C18.8998 26.8542 19.0092 26.9089 19.1732 26.9635C19.4465 27.0182 19.7746 27.0182 20.2119 26.9089L21.032 26.6902C21.032 26.6902 21.3053 26.6355 21.6333 26.5809C21.3053 26.5809 21.032 26.6355 21.032 26.6355L20.2119 26.8542C19.7746 26.9635 19.4465 26.9635 19.1732 26.9089C19.0092 26.9089 18.8998 26.8542 18.8452 26.8542Z" fill="white"/>
<path d="M27.2097 27.0182C26.991 27.0729 26.5536 27.1822 25.7882 27.0729L25.5149 27.0182L24.9135 26.9089C24.9135 26.9089 24.0388 26.7449 23.6015 27.0182C23.8201 26.8542 24.1482 26.8542 24.4215 26.8542C24.5855 26.8542 24.7495 26.8542 24.8589 26.9089C24.6402 26.8542 24.0388 26.7449 23.5468 27.0182C23.8201 26.8542 24.1482 26.7996 24.4215 26.8542C24.6949 26.8542 24.9135 26.9089 24.9135 26.9089L25.4602 27.0182L25.7336 27.0729C26.2803 27.1276 26.663 27.1276 26.8816 27.0729C27.1003 27.0182 27.155 27.0182 27.2097 27.0182C27.2643 26.9636 27.319 26.9636 27.319 26.9636C27.319 26.9636 27.319 27.0182 27.2097 27.0182ZM27.1003 26.6902C26.991 26.7449 26.5536 26.9089 25.7882 26.7449L24.9682 26.5262C24.9682 26.5262 23.8748 26.2529 23.2734 26.6902C23.5468 26.4715 23.9841 26.4169 24.3668 26.4169C24.7495 26.4169 25.0229 26.4715 25.0229 26.4715L25.8429 26.6902C26.2256 26.7996 26.663 26.7996 27.0456 26.6902C27.0456 26.6902 27.1003 26.6355 27.1003 26.6902ZM27.2643 26.8542C27.155 26.9089 26.6083 27.1276 25.8429 26.9089L25.0229 26.6902C25.0229 26.6902 24.0388 26.4169 23.4921 26.8542C23.7655 26.6355 24.1482 26.5809 24.4762 26.5809C24.8042 26.5809 25.0775 26.6902 25.0775 26.6902L25.8976 26.9089C26.3349 27.0182 26.663 27.0182 26.9363 26.9636C27.0456 26.8542 27.2097 26.8542 27.2643 26.8542Z" fill="white"/>
</svg>
