<svg width="46" height="46" viewBox="0 0 46 46" fill="none" xmlns="http://www.w3.org/2000/svg">
<rect width="46" height="46" rx="23" fill="white"/>
<path d="M8.01864 25.9113L11.6044 21.6687H7.61036C6.35 21.6687 5.67544 23.1421 6.49201 24.1007L8.01864 25.9113Z" fill="#49BD48"/>
<path d="M17.6047 24.2604L18.3147 21.6687H19.4686L18.1195 25.8758H17.0899L16.3266 23.3373L15.5633 25.8758H14.5337L13.1846 21.6865H14.3384L15.0485 24.2604L15.8118 21.6865H16.8414L17.6047 24.2604Z" fill="#173748"/>
<path d="M23.7644 24.2249H20.6047C20.7467 24.7574 21.1372 25.0059 21.794 25.0059C22.2023 25.0059 22.5218 24.8639 22.7348 24.5799L23.6047 25.0769C23.1964 25.6805 22.5751 25.9823 21.7763 25.9823C21.084 25.9823 20.5337 25.7692 20.1076 25.361C19.6816 24.9349 19.4863 24.4201 19.4863 23.7811C19.4863 23.1598 19.6993 22.6272 20.1076 22.2012C20.5159 21.7752 21.0485 21.5621 21.7053 21.5621C22.3266 21.5621 22.8236 21.7752 23.2319 22.2012C23.6402 22.6272 23.8354 23.1598 23.8354 23.7811C23.8177 23.8876 23.7999 24.0473 23.7644 24.2249ZM20.5869 23.3728H22.7171C22.6638 23.1065 22.5396 22.8935 22.3443 22.7515C22.1491 22.6095 21.936 22.5385 21.6698 22.5385C21.3857 22.5385 21.1372 22.6095 20.942 22.7692C20.7822 22.9112 20.6579 23.1065 20.5869 23.3728Z" fill="#173748"/>
<path d="M26.7112 21.5621C27.1727 21.5621 27.5455 21.7219 27.8473 22.0237C28.1491 22.3432 28.3088 22.7692 28.3088 23.3018V25.8757H27.226V23.426C27.226 23.1598 27.155 22.9467 26.9952 22.787C26.8532 22.6272 26.6402 22.5562 26.3917 22.5562C26.1076 22.5562 25.8769 22.645 25.7171 22.8225C25.5573 23 25.4686 23.2485 25.4686 23.6036V25.8757H24.3857V20H25.4686V22.1479C25.7171 21.7574 26.1431 21.5621 26.7112 21.5621Z" fill="#173748"/>
<path d="M32.605 25.3432C32.1789 25.7692 31.6464 25.9823 31.0251 25.9823C30.4038 25.9823 29.8712 25.7692 29.4452 25.3432C29.0192 24.9172 28.8062 24.3846 28.8062 23.7633C28.8062 23.142 29.0192 22.6272 29.4452 22.2012C29.8712 21.7752 30.4038 21.5621 31.0251 21.5621C31.6464 21.5621 32.1789 21.7752 32.605 22.2012C33.031 22.6272 33.244 23.1598 33.244 23.7633C33.244 24.4024 33.031 24.9172 32.605 25.3432ZM30.2085 24.5976C30.4215 24.8107 30.7056 24.9172 31.0251 24.9172C31.3446 24.9172 31.6286 24.8107 31.8417 24.5976C32.0547 24.3846 32.1612 24.1006 32.1612 23.7633C32.1612 23.426 32.0547 23.1598 31.8417 22.929C31.6286 22.716 31.3446 22.6095 31.0251 22.6095C30.7056 22.6095 30.4215 22.716 30.2085 22.929C29.9955 23.1598 29.889 23.426 29.889 23.7633C29.889 24.1006 29.9955 24.3846 30.2085 24.5976Z" fill="#173748"/>
<path d="M34.7351 22.8758C34.7351 23.0533 34.9837 23.2131 35.4985 23.3374C35.676 23.3729 35.8357 23.4261 35.9777 23.4794C36.1198 23.5326 36.2618 23.6036 36.4215 23.7101C36.5635 23.8166 36.6878 23.9409 36.7766 24.1007C36.8653 24.2604 36.9008 24.4557 36.9008 24.6687C36.9008 25.0947 36.7411 25.432 36.4215 25.6628C36.102 25.8936 35.6937 26.0001 35.2144 26.0001C34.3446 26.0001 33.7588 25.6628 33.457 25.006L34.3979 24.4734C34.5221 24.8285 34.8061 25.0237 35.2144 25.0237C35.605 25.0237 35.8002 24.8995 35.8002 24.6687C35.8002 24.4912 35.5517 24.3314 35.0369 24.2072C34.8416 24.1539 34.6819 24.1007 34.5576 24.0474C34.4156 23.9942 34.2736 23.9232 34.1138 23.8166C33.9541 23.7101 33.8298 23.5859 33.7588 23.4439C33.6701 23.2841 33.6345 23.1066 33.6345 22.9113C33.6345 22.503 33.7943 22.1658 34.0961 21.935C34.3979 21.6865 34.7884 21.58 35.2322 21.58C35.5695 21.58 35.889 21.651 36.1553 21.8107C36.4393 21.9705 36.6523 22.1835 36.8121 22.4675L35.889 22.9646C35.747 22.6805 35.534 22.5385 35.2144 22.5385C35.0724 22.5385 34.9659 22.574 34.8594 22.6273C34.7706 22.6805 34.7351 22.7693 34.7351 22.8758Z" fill="#173748"/>
<path d="M39.8648 21.6864V22.7337H38.9239V24.4734C38.9239 24.6154 38.9594 24.7219 39.0304 24.7929C39.1014 24.8639 39.208 24.8994 39.35 24.8994C39.492 24.8994 39.6695 24.8994 39.8648 24.8994V25.8757C39.137 25.9645 38.6044 25.8935 38.3026 25.6627C38.0009 25.4497 37.8411 25.0414 37.8411 24.4556V22.716H37.1133V21.6864H37.8411V20.8343L38.9239 20.5148V21.6864H39.8648Z" fill="#173748"/>
</svg>
